# Tiled2Unity generated file. Do not modify by hand.
# Wavefront file for 'Battle-Room_Normal-2_mesh_0003.obj'

# Vertices (Count = 256)
v -12.16 -7.04 0
v -12.8 -7.04 0
v -12.8 -6.4 0
v -12.16 -6.4 0
v -11.52 -7.04 0
v -12.16 -7.04 0
v -12.16 -6.4 0
v -11.52 -6.4 0
v -10.88 -7.04 0
v -11.52 -7.04 0
v -11.52 -6.4 0
v -10.88 -6.4 0
v -8.96 -7.04 0
v -9.599999 -7.04 0
v -9.599999 -6.4 0
v -8.96 -6.4 0
v -8.32 -7.04 0
v -8.96 -7.04 0
v -8.96 -6.4 0
v -8.32 -6.4 0
v -7.68 -7.04 0
v -8.32 -7.04 0
v -8.32 -6.4 0
v -7.68 -6.4 0
v -7.04 -7.04 0
v -7.68 -7.04 0
v -7.68 -6.4 0
v -7.04 -6.4 0
v -5.12 -7.04 0
v -5.76 -7.04 0
v -5.76 -6.4 0
v -5.12 -6.4 0
v -4.48 -7.04 0
v -5.12 -7.04 0
v -5.12 -6.4 0
v -4.48 -6.4 0
v -3.84 -7.04 0
v -4.48 -7.04 0
v -4.48 -6.4 0
v -3.84 -6.4 0
v -3.2 -7.04 0
v -3.84 -7.04 0
v -3.84 -6.4 0
v -3.2 -6.4 0
v -1.28 -7.04 0
v -1.92 -7.04 0
v -1.92 -6.4 0
v -1.28 -6.4 0
v -0.64 -7.04 0
v -1.28 -7.04 0
v -1.28 -6.4 0
v -0.64 -6.4 0
v 0 -7.04 0
v -0.64 -7.04 0
v -0.64 -6.4 0
v 0 -6.4 0
v -12.16 -6.4 0
v -12.8 -6.4 0
v -12.8 -5.76 0
v -12.16 -5.76 0
v -11.52 -6.4 0
v -12.16 -6.4 0
v -12.16 -5.76 0
v -11.52 -5.76 0
v -10.88 -6.4 0
v -11.52 -6.4 0
v -11.52 -5.76 0
v -10.88 -5.76 0
v -8.96 -6.4 0
v -9.599999 -6.4 0
v -9.599999 -5.76 0
v -8.96 -5.76 0
v -8.32 -6.4 0
v -8.96 -6.4 0
v -8.96 -5.76 0
v -8.32 -5.76 0
v -7.68 -6.4 0
v -8.32 -6.4 0
v -8.32 -5.76 0
v -7.68 -5.76 0
v -7.04 -6.4 0
v -7.68 -6.4 0
v -7.68 -5.76 0
v -7.04 -5.76 0
v -5.12 -6.4 0
v -5.76 -6.4 0
v -5.76 -5.76 0
v -5.12 -5.76 0
v -4.48 -6.4 0
v -5.12 -6.4 0
v -5.12 -5.76 0
v -4.48 -5.76 0
v -3.84 -6.4 0
v -4.48 -6.4 0
v -4.48 -5.76 0
v -3.84 -5.76 0
v -3.2 -6.4 0
v -3.84 -6.4 0
v -3.84 -5.76 0
v -3.2 -5.76 0
v -1.28 -6.4 0
v -1.92 -6.4 0
v -1.92 -5.76 0
v -1.28 -5.76 0
v -0.64 -6.4 0
v -1.28 -6.4 0
v -1.28 -5.76 0
v -0.64 -5.76 0
v 0 -6.4 0
v -0.64 -6.4 0
v -0.64 -5.76 0
v 0 -5.76 0
v -12.16 -5.76 0
v -12.8 -5.76 0
v -12.8 -5.12 0
v -12.16 -5.12 0
v 0 -5.76 0
v -0.64 -5.76 0
v -0.64 -5.12 0
v 0 -5.12 0
v -12.16 -5.12 0
v -12.8 -5.12 0
v -12.8 -4.48 0
v -12.16 -4.48 0
v 0 -5.12 0
v -0.64 -5.12 0
v -0.64 -4.48 0
v 0 -4.48 0
v -12.16 -4.48 0
v -12.8 -4.48 0
v -12.8 -3.84 0
v -12.16 -3.84 0
v 0 -4.48 0
v -0.64 -4.48 0
v -0.64 -3.84 0
v 0 -3.84 0
v -12.16 -3.84 0
v -12.8 -3.84 0
v -12.8 -3.2 0
v -12.16 -3.2 0
v 0 -3.84 0
v -0.64 -3.84 0
v -0.64 -3.2 0
v 0 -3.2 0
v -12.16 -3.2 0
v -12.8 -3.2 0
v -12.8 -2.56 0
v -12.16 -2.56 0
v 0 -3.2 0
v -0.64 -3.2 0
v -0.64 -2.56 0
v 0 -2.56 0
v -12.16 -2.56 0
v -12.8 -2.56 0
v -12.8 -1.92 0
v -12.16 -1.92 0
v 0 -2.56 0
v -0.64 -2.56 0
v -0.64 -1.92 0
v 0 -1.92 0
v -12.16 -1.92 0
v -12.8 -1.92 0
v -12.8 -1.28 0
v -12.16 -1.28 0
v 0 -1.92 0
v -0.64 -1.92 0
v -0.64 -1.28 0
v 0 -1.28 0
v -12.16 -1.28 0
v -12.8 -1.28 0
v -12.8 -0.64 0
v -12.16 -0.64 0
v 0 -1.28 0
v -0.64 -1.28 0
v -0.64 -0.64 0
v 0 -0.64 0
v -12.16 -0.64 0
v -12.8 -0.64 0
v -12.8 0 0
v -12.16 0 0
v -11.52 -0.64 0
v -12.16 -0.64 0
v -12.16 0 0
v -11.52 0 0
v -10.88 -0.64 0
v -11.52 -0.64 0
v -11.52 0 0
v -10.88 0 0
v -10.24 -0.64 0
v -10.88 -0.64 0
v -10.88 0 0
v -10.24 0 0
v -9.599999 -0.64 0
v -10.24 -0.64 0
v -10.24 0 0
v -9.599999 0 0
v -8.96 -0.64 0
v -9.599999 -0.64 0
v -9.599999 0 0
v -8.96 0 0
v -8.32 -0.64 0
v -8.96 -0.64 0
v -8.96 0 0
v -8.32 0 0
v -7.68 -0.64 0
v -8.32 -0.64 0
v -8.32 0 0
v -7.68 0 0
v -7.04 -0.64 0
v -7.68 -0.64 0
v -7.68 0 0
v -7.04 0 0
v -6.4 -0.64 0
v -7.04 -0.64 0
v -7.04 0 0
v -6.4 0 0
v -5.76 -0.64 0
v -6.4 -0.64 0
v -6.4 0 0
v -5.76 0 0
v -5.12 -0.64 0
v -5.76 -0.64 0
v -5.76 0 0
v -5.12 0 0
v -4.48 -0.64 0
v -5.12 -0.64 0
v -5.12 0 0
v -4.48 0 0
v -3.84 -0.64 0
v -4.48 -0.64 0
v -4.48 0 0
v -3.84 0 0
v -3.2 -0.64 0
v -3.84 -0.64 0
v -3.84 0 0
v -3.2 0 0
v -2.56 -0.64 0
v -3.2 -0.64 0
v -3.2 0 0
v -2.56 0 0
v -1.92 -0.64 0
v -2.56 -0.64 0
v -2.56 0 0
v -1.92 0 0
v -1.28 -0.64 0
v -1.92 -0.64 0
v -1.92 0 0
v -1.28 0 0
v -0.64 -0.64 0
v -1.28 -0.64 0
v -1.28 0 0
v -0.64 0 0
v 0 -0.64 0
v -0.64 -0.64 0
v -0.64 0 0
v 0 0 0

# Texture cooridinates (Count = 44)
vt 0.5001221 0.5001221
vt 0.6665446 0.5001221
vt 0.6665446 0.6665446
vt 0.5001221 0.6665446
vt 0.1667887 0.8334554
vt 0.3332113 0.8334554
vt 0.3332113 0.9998779
vt 0.1667887 0.9998779
vt 0.6667888 0.6667887
vt 0.8332112 0.6667887
vt 0.8332112 0.8332112
vt 0.6667888 0.8332112
vt 0.0001220703 0.6667887
vt 0.1665446 0.6667887
vt 0.1665446 0.8332112
vt 0.0001220703 0.8332112
vt 0.6667888 0.3334554
vt 0.8332112 0.3334554
vt 0.8332112 0.4998779
vt 0.6667888 0.4998779
vt 0.3334554 0.6667887
vt 0.4998779 0.6667887
vt 0.4998779 0.8332112
vt 0.3334554 0.8332112
vt 0.8334554 0.6667887
vt 0.9998779 0.6667887
vt 0.9998779 0.8332112
vt 0.8334554 0.8332112
vt 0.5001221 0.6667887
vt 0.6665446 0.6667887
vt 0.6665446 0.8332112
vt 0.5001221 0.8332112
vt 0.8334554 0.8334554
vt 0.9998779 0.8334554
vt 0.9998779 0.9998779
vt 0.8334554 0.9998779
vt 0.1667887 0.3334554
vt 0.3332113 0.3334554
vt 0.3332113 0.4998779
vt 0.1667887 0.4998779
vt 0.6667888 0.8334554
vt 0.8332112 0.8334554
vt 0.8332112 0.9998779
vt 0.6667888 0.9998779

# Normal
vn 0 0 -1

# Mesh description
g Battle-Room_Normal-2_mesh_0003

# Faces
f 1/1/1 2/2/1 3/3/1 4/4/1
f 5/5/1 6/6/1 7/7/1 8/8/1
f 9/9/1 10/10/1 11/11/1 12/12/1
f 13/13/1 14/14/1 15/15/1 16/16/1
f 17/17/1 18/18/1 19/19/1 20/20/1
f 21/17/1 22/18/1 23/19/1 24/20/1
f 25/21/1 26/22/1 27/23/1 28/24/1
f 29/13/1 30/14/1 31/15/1 32/16/1
f 33/17/1 34/18/1 35/19/1 36/20/1
f 37/17/1 38/18/1 39/19/1 40/20/1
f 41/21/1 42/22/1 43/23/1 44/24/1
f 45/25/1 46/26/1 47/27/1 48/28/1
f 49/5/1 50/6/1 51/7/1 52/8/1
f 53/1/1 54/2/1 55/3/1 56/4/1
f 57/29/1 58/30/1 59/31/1 60/32/1
f 61/17/1 62/18/1 63/19/1 64/20/1
f 65/21/1 66/22/1 67/23/1 68/24/1
f 69/13/1 70/14/1 71/15/1 72/16/1
f 73/17/1 74/18/1 75/19/1 76/20/1
f 77/17/1 78/18/1 79/19/1 80/20/1
f 81/21/1 82/22/1 83/23/1 84/24/1
f 85/13/1 86/14/1 87/15/1 88/16/1
f 89/17/1 90/18/1 91/19/1 92/20/1
f 93/17/1 94/18/1 95/19/1 96/20/1
f 97/21/1 98/22/1 99/23/1 100/24/1
f 101/13/1 102/14/1 103/15/1 104/16/1
f 105/17/1 106/18/1 107/19/1 108/20/1
f 109/29/1 110/30/1 111/31/1 112/32/1
f 113/29/1 114/30/1 115/31/1 116/32/1
f 117/29/1 118/30/1 119/31/1 120/32/1
f 121/29/1 122/30/1 123/31/1 124/32/1
f 125/29/1 126/30/1 127/31/1 128/32/1
f 129/29/1 130/30/1 131/31/1 132/32/1
f 133/29/1 134/30/1 135/31/1 136/32/1
f 137/29/1 138/30/1 139/31/1 140/32/1
f 141/29/1 142/30/1 143/31/1 144/32/1
f 145/29/1 146/30/1 147/31/1 148/32/1
f 149/29/1 150/30/1 151/31/1 152/32/1
f 153/29/1 154/30/1 155/31/1 156/32/1
f 157/29/1 158/30/1 159/31/1 160/32/1
f 161/29/1 162/30/1 163/31/1 164/32/1
f 165/29/1 166/30/1 167/31/1 168/32/1
f 169/29/1 170/30/1 171/31/1 172/32/1
f 173/29/1 174/30/1 175/31/1 176/32/1
f 177/33/1 178/34/1 179/35/1 180/36/1
f 181/37/1 182/38/1 183/39/1 184/40/1
f 185/37/1 186/38/1 187/39/1 188/40/1
f 189/37/1 190/38/1 191/39/1 192/40/1
f 193/37/1 194/38/1 195/39/1 196/40/1
f 197/37/1 198/38/1 199/39/1 200/40/1
f 201/37/1 202/38/1 203/39/1 204/40/1
f 205/37/1 206/38/1 207/39/1 208/40/1
f 209/37/1 210/38/1 211/39/1 212/40/1
f 213/37/1 214/38/1 215/39/1 216/40/1
f 217/37/1 218/38/1 219/39/1 220/40/1
f 221/37/1 222/38/1 223/39/1 224/40/1
f 225/37/1 226/38/1 227/39/1 228/40/1
f 229/37/1 230/38/1 231/39/1 232/40/1
f 233/37/1 234/38/1 235/39/1 236/40/1
f 237/37/1 238/38/1 239/39/1 240/40/1
f 241/37/1 242/38/1 243/39/1 244/40/1
f 245/37/1 246/38/1 247/39/1 248/40/1
f 249/37/1 250/38/1 251/39/1 252/40/1
f 253/41/1 254/42/1 255/43/1 256/44/1

