# Tiled2Unity generated file. Do not modify by hand.
# Wavefront file for 'End-Game_mesh_0003.obj'

# Vertices (Count = 304)
v -21.76 -12.16 0
v -22.4 -12.16 0
v -22.4 -11.52 0
v -21.76 -11.52 0
v -22.4 -12.16 0
v -23.04 -12.16 0
v -23.04 -11.52 0
v -22.4 -11.52 0
v -26.24 -12.16 0
v -26.88 -12.16 0
v -26.88 -11.52 0
v -26.24 -11.52 0
v -26.88 -12.16 0
v -27.52 -12.16 0
v -27.52 -11.52 0
v -26.88 -11.52 0
v -30.72 -12.16 0
v -31.36 -12.16 0
v -31.36 -11.52 0
v -30.72 -11.52 0
v -31.36 -12.16 0
v -32 -12.16 0
v -32 -11.52 0
v -31.36 -11.52 0
v -35.2 -12.16 0
v -35.84 -12.16 0
v -35.84 -11.52 0
v -35.2 -11.52 0
v -35.84 -12.16 0
v -36.48 -12.16 0
v -36.48 -11.52 0
v -35.84 -11.52 0
v -20.48 -16.64 0
v -21.12 -16.64 0
v -21.12 -16 0
v -20.48 -16 0
v -21.12 -16.64 0
v -21.76 -16.64 0
v -21.76 -16 0
v -21.12 -16 0
v -19.84 -19.84 0
v -20.48 -19.84 0
v -20.48 -19.2 0
v -19.84 -19.2 0
v -20.48 -19.84 0
v -21.12 -19.84 0
v -21.12 -19.2 0
v -20.48 -19.2 0
v -21.12 -19.84 0
v -21.76 -19.84 0
v -21.76 -19.2 0
v -21.12 -19.2 0
v -21.76 -19.84 0
v -22.4 -19.84 0
v -22.4 -19.2 0
v -21.76 -19.2 0
v -27.52 -19.84 0
v -28.16 -19.84 0
v -28.16 -19.2 0
v -27.52 -19.2 0
v -28.16 -19.84 0
v -28.8 -19.84 0
v -28.8 -19.2 0
v -28.16 -19.2 0
v -28.8 -19.84 0
v -29.44 -19.84 0
v -29.44 -19.2 0
v -28.8 -19.2 0
v -29.44 -19.84 0
v -30.08 -19.84 0
v -30.08 -19.2 0
v -29.44 -19.2 0
v -20.48 -24.96 0
v -21.12 -24.96 0
v -21.12 -24.32 0
v -20.48 -24.32 0
v -21.12 -24.96 0
v -21.76 -24.96 0
v -21.76 -24.32 0
v -21.12 -24.32 0
v -21.76 -24.96 0
v -22.4 -24.96 0
v -22.4 -24.32 0
v -21.76 -24.32 0
v -22.4 -24.96 0
v -23.04 -24.96 0
v -23.04 -24.32 0
v -22.4 -24.32 0
v -23.04 -24.96 0
v -23.68 -24.96 0
v -23.68 -24.32 0
v -23.04 -24.32 0
v -23.68 -24.96 0
v -24.32 -24.96 0
v -24.32 -24.32 0
v -23.68 -24.32 0
v -24.32 -24.96 0
v -24.96 -24.96 0
v -24.96 -24.32 0
v -24.32 -24.32 0
v -24.96 -24.96 0
v -25.6 -24.96 0
v -25.6 -24.32 0
v -24.96 -24.32 0
v -25.6 -24.96 0
v -26.24 -24.96 0
v -26.24 -24.32 0
v -25.6 -24.32 0
v -26.24 -24.96 0
v -26.88 -24.96 0
v -26.88 -24.32 0
v -26.24 -24.32 0
v -26.88 -24.96 0
v -27.52 -24.96 0
v -27.52 -24.32 0
v -26.88 -24.32 0
v -27.52 -24.96 0
v -28.16 -24.96 0
v -28.16 -24.32 0
v -27.52 -24.32 0
v -28.16 -24.96 0
v -28.8 -24.96 0
v -28.8 -24.32 0
v -28.16 -24.32 0
v -28.8 -24.96 0
v -29.44 -24.96 0
v -29.44 -24.32 0
v -28.8 -24.32 0
v -29.44 -24.96 0
v -30.08 -24.96 0
v -30.08 -24.32 0
v -29.44 -24.32 0
v -30.08 -24.96 0
v -30.72 -24.96 0
v -30.72 -24.32 0
v -30.08 -24.32 0
v -30.72 -24.96 0
v -31.36 -24.96 0
v -31.36 -24.32 0
v -30.72 -24.32 0
v -31.36 -24.96 0
v -32 -24.96 0
v -32 -24.32 0
v -31.36 -24.32 0
v -32 -24.96 0
v -32.64 -24.96 0
v -32.64 -24.32 0
v -32 -24.32 0
v -32.64 -24.96 0
v -33.28 -24.96 0
v -33.28 -24.32 0
v -32.64 -24.32 0
v -33.28 -24.96 0
v -33.92 -24.96 0
v -33.92 -24.32 0
v -33.28 -24.32 0
v -33.92 -24.96 0
v -34.56 -24.96 0
v -34.56 -24.32 0
v -33.92 -24.32 0
v -34.56 -24.96 0
v -35.2 -24.96 0
v -35.2 -24.32 0
v -34.56 -24.32 0
v -35.2 -24.96 0
v -35.84 -24.96 0
v -35.84 -24.32 0
v -35.2 -24.32 0
v -35.84 -24.96 0
v -36.48 -24.96 0
v -36.48 -24.32 0
v -35.84 -24.32 0
v -36.48 -24.96 0
v -37.12 -24.96 0
v -37.12 -24.32 0
v -36.48 -24.32 0
v -37.12 -24.96 0
v -37.76 -24.96 0
v -37.76 -24.32 0
v -37.12 -24.32 0
v -37.76 -24.96 0
v -38.4 -24.96 0
v -38.4 -24.32 0
v -37.76 -24.32 0
v -38.4 -24.96 0
v -39.04 -24.96 0
v -39.04 -24.32 0
v -38.4 -24.32 0
v -39.04 -24.96 0
v -39.68 -24.96 0
v -39.68 -24.32 0
v -39.04 -24.32 0
v -18.56 -35.2 0
v -19.2 -35.2 0
v -19.2 -34.56 0
v -18.56 -34.56 0
v -19.2 -35.2 0
v -19.84 -35.2 0
v -19.84 -34.56 0
v -19.2 -34.56 0
v -19.84 -35.2 0
v -20.48 -35.2 0
v -20.48 -34.56 0
v -19.84 -34.56 0
v -20.48 -35.2 0
v -21.12 -35.2 0
v -21.12 -34.56 0
v -20.48 -34.56 0
v -21.12 -35.2 0
v -21.76 -35.2 0
v -21.76 -34.56 0
v -21.12 -34.56 0
v -21.76 -35.2 0
v -22.4 -35.2 0
v -22.4 -34.56 0
v -21.76 -34.56 0
v -22.4 -35.2 0
v -23.04 -35.2 0
v -23.04 -34.56 0
v -22.4 -34.56 0
v -23.04 -35.2 0
v -23.68 -35.2 0
v -23.68 -34.56 0
v -23.04 -34.56 0
v -23.68 -35.2 0
v -24.32 -35.2 0
v -24.32 -34.56 0
v -23.68 -34.56 0
v -24.32 -35.2 0
v -24.96 -35.2 0
v -24.96 -34.56 0
v -24.32 -34.56 0
v -24.96 -35.2 0
v -25.6 -35.2 0
v -25.6 -34.56 0
v -24.96 -34.56 0
v -25.6 -35.2 0
v -26.24 -35.2 0
v -26.24 -34.56 0
v -25.6 -34.56 0
v -26.24 -35.2 0
v -26.88 -35.2 0
v -26.88 -34.56 0
v -26.24 -34.56 0
v -26.88 -35.2 0
v -27.52 -35.2 0
v -27.52 -34.56 0
v -26.88 -34.56 0
v -27.52 -35.2 0
v -28.16 -35.2 0
v -28.16 -34.56 0
v -27.52 -34.56 0
v -28.16 -35.2 0
v -28.8 -35.2 0
v -28.8 -34.56 0
v -28.16 -34.56 0
v -28.8 -35.2 0
v -29.44 -35.2 0
v -29.44 -34.56 0
v -28.8 -34.56 0
v -29.44 -35.2 0
v -30.08 -35.2 0
v -30.08 -34.56 0
v -29.44 -34.56 0
v -30.08 -35.2 0
v -30.72 -35.2 0
v -30.72 -34.56 0
v -30.08 -34.56 0
v -30.72 -35.2 0
v -31.36 -35.2 0
v -31.36 -34.56 0
v -30.72 -34.56 0
v -31.36 -35.2 0
v -32 -35.2 0
v -32 -34.56 0
v -31.36 -34.56 0
v -32 -35.2 0
v -32.64 -35.2 0
v -32.64 -34.56 0
v -32 -34.56 0
v -32.64 -35.2 0
v -33.28 -35.2 0
v -33.28 -34.56 0
v -32.64 -34.56 0
v -33.28 -35.2 0
v -33.92 -35.2 0
v -33.92 -34.56 0
v -33.28 -34.56 0
v -33.92 -35.2 0
v -34.56 -35.2 0
v -34.56 -34.56 0
v -33.92 -34.56 0
v -34.56 -35.2 0
v -35.2 -35.2 0
v -35.2 -34.56 0
v -34.56 -34.56 0
v -35.2 -35.2 0
v -35.84 -35.2 0
v -35.84 -34.56 0
v -35.2 -34.56 0
v -35.84 -35.2 0
v -36.48 -35.2 0
v -36.48 -34.56 0
v -35.84 -34.56 0

# Texture cooridinates (Count = 10)
vt 0.3333333 0
vt 0.5 0
vt 0.5 0.1666667
vt 0.3333333 0.1666667
vt 0.6666667 0
vt 0.6666667 0.1666667
vt 0.1666667 0
vt 0.1666667 0.1666667
vt 0 0
vt 0 0.1666667

# Normal
vn 0 0 -1

# Mesh description
g End-Game_mesh_0003

# Faces
f 1/1/1 2/2/1 3/3/1 4/4/1
f 5/2/1 6/5/1 7/6/1 8/3/1
f 9/1/1 10/2/1 11/3/1 12/4/1
f 13/2/1 14/5/1 15/6/1 16/3/1
f 17/1/1 18/2/1 19/3/1 20/4/1
f 21/2/1 22/5/1 23/6/1 24/3/1
f 25/1/1 26/2/1 27/3/1 28/4/1
f 29/2/1 30/5/1 31/6/1 32/3/1
f 33/7/1 34/1/1 35/4/1 36/8/1
f 37/9/1 38/7/1 39/8/1 40/10/1
f 41/1/1 42/2/1 43/3/1 44/4/1
f 45/2/1 46/5/1 47/6/1 48/3/1
f 49/1/1 50/2/1 51/3/1 52/4/1
f 53/2/1 54/5/1 55/6/1 56/3/1
f 57/1/1 58/2/1 59/3/1 60/4/1
f 61/2/1 62/5/1 63/6/1 64/3/1
f 65/1/1 66/2/1 67/3/1 68/4/1
f 69/2/1 70/5/1 71/6/1 72/3/1
f 73/1/1 74/2/1 75/3/1 76/4/1
f 77/2/1 78/5/1 79/6/1 80/3/1
f 81/1/1 82/2/1 83/3/1 84/4/1
f 85/2/1 86/5/1 87/6/1 88/3/1
f 89/1/1 90/2/1 91/3/1 92/4/1
f 93/2/1 94/5/1 95/6/1 96/3/1
f 97/1/1 98/2/1 99/3/1 100/4/1
f 101/2/1 102/5/1 103/6/1 104/3/1
f 105/1/1 106/2/1 107/3/1 108/4/1
f 109/2/1 110/5/1 111/6/1 112/3/1
f 113/1/1 114/2/1 115/3/1 116/4/1
f 117/2/1 118/5/1 119/6/1 120/3/1
f 121/1/1 122/2/1 123/3/1 124/4/1
f 125/2/1 126/5/1 127/6/1 128/3/1
f 129/1/1 130/2/1 131/3/1 132/4/1
f 133/2/1 134/5/1 135/6/1 136/3/1
f 137/1/1 138/2/1 139/3/1 140/4/1
f 141/2/1 142/5/1 143/6/1 144/3/1
f 145/1/1 146/2/1 147/3/1 148/4/1
f 149/2/1 150/5/1 151/6/1 152/3/1
f 153/1/1 154/2/1 155/3/1 156/4/1
f 157/2/1 158/5/1 159/6/1 160/3/1
f 161/1/1 162/2/1 163/3/1 164/4/1
f 165/2/1 166/5/1 167/6/1 168/3/1
f 169/1/1 170/2/1 171/3/1 172/4/1
f 173/2/1 174/5/1 175/6/1 176/3/1
f 177/1/1 178/2/1 179/3/1 180/4/1
f 181/2/1 182/5/1 183/6/1 184/3/1
f 185/1/1 186/2/1 187/3/1 188/4/1
f 189/2/1 190/5/1 191/6/1 192/3/1
f 193/1/1 194/2/1 195/3/1 196/4/1
f 197/2/1 198/5/1 199/6/1 200/3/1
f 201/1/1 202/2/1 203/3/1 204/4/1
f 205/2/1 206/5/1 207/6/1 208/3/1
f 209/1/1 210/2/1 211/3/1 212/4/1
f 213/2/1 214/5/1 215/6/1 216/3/1
f 217/1/1 218/2/1 219/3/1 220/4/1
f 221/2/1 222/5/1 223/6/1 224/3/1
f 225/1/1 226/2/1 227/3/1 228/4/1
f 229/2/1 230/5/1 231/6/1 232/3/1
f 233/1/1 234/2/1 235/3/1 236/4/1
f 237/2/1 238/5/1 239/6/1 240/3/1
f 241/1/1 242/2/1 243/3/1 244/4/1
f 245/2/1 246/5/1 247/6/1 248/3/1
f 249/1/1 250/2/1 251/3/1 252/4/1
f 253/2/1 254/5/1 255/6/1 256/3/1
f 257/1/1 258/2/1 259/3/1 260/4/1
f 261/2/1 262/5/1 263/6/1 264/3/1
f 265/1/1 266/2/1 267/3/1 268/4/1
f 269/2/1 270/5/1 271/6/1 272/3/1
f 273/1/1 274/2/1 275/3/1 276/4/1
f 277/2/1 278/5/1 279/6/1 280/3/1
f 281/1/1 282/2/1 283/3/1 284/4/1
f 285/2/1 286/5/1 287/6/1 288/3/1
f 289/1/1 290/2/1 291/3/1 292/4/1
f 293/2/1 294/5/1 295/6/1 296/3/1
f 297/1/1 298/2/1 299/3/1 300/4/1
f 301/2/1 302/5/1 303/6/1 304/3/1

