# Tiled2Unity generated file. Do not modify by hand.
# Wavefront file for 'Battle-Room_Hard-2_mesh_0002.obj'

# Vertices (Count = 136)
v -11.52 -5.76 0
v -12.16 -5.76 0
v -12.16 -5.12 0
v -11.52 -5.12 0
v -10.88 -5.76 0
v -11.52 -5.76 0
v -11.52 -5.12 0
v -10.88 -5.12 0
v -8.96 -5.76 0
v -9.599999 -5.76 0
v -9.599999 -5.12 0
v -8.96 -5.12 0
v -8.32 -5.76 0
v -8.96 -5.76 0
v -8.96 -5.12 0
v -8.32 -5.12 0
v -7.68 -5.76 0
v -8.32 -5.76 0
v -8.32 -5.12 0
v -7.68 -5.12 0
v -5.12 -5.76 0
v -5.76 -5.76 0
v -5.76 -5.12 0
v -5.12 -5.12 0
v -4.48 -5.76 0
v -5.12 -5.76 0
v -5.12 -5.12 0
v -4.48 -5.12 0
v -3.84 -5.76 0
v -4.48 -5.76 0
v -4.48 -5.12 0
v -3.84 -5.12 0
v -1.28 -5.76 0
v -1.92 -5.76 0
v -1.92 -5.12 0
v -1.28 -5.12 0
v -0.64 -5.76 0
v -1.28 -5.76 0
v -1.28 -5.12 0
v -0.64 -5.12 0
v -6.4 -4.48 0
v -7.04 -4.48 0
v -7.04 -3.84 0
v -6.4 -3.84 0
v -5.76 -4.48 0
v -6.4 -4.48 0
v -6.4 -3.84 0
v -5.76 -3.84 0
v -5.12 -4.48 0
v -5.76 -4.48 0
v -5.76 -3.84 0
v -5.12 -3.84 0
v -10.88 -3.84 0
v -11.52 -3.84 0
v -11.52 -3.2 0
v -10.88 -3.2 0
v -10.24 -3.84 0
v -10.88 -3.84 0
v -10.88 -3.2 0
v -10.24 -3.2 0
v -9.599999 -3.84 0
v -10.24 -3.84 0
v -10.24 -3.2 0
v -9.599999 -3.2 0
v -8.96 -3.84 0
v -9.599999 -3.84 0
v -9.599999 -3.2 0
v -8.96 -3.2 0
v -8.32 -3.84 0
v -8.96 -3.84 0
v -8.96 -3.2 0
v -8.32 -3.2 0
v -3.2 -3.84 0
v -3.84 -3.84 0
v -3.84 -3.2 0
v -3.2 -3.2 0
v -2.56 -3.84 0
v -3.2 -3.84 0
v -3.2 -3.2 0
v -2.56 -3.2 0
v -1.92 -3.84 0
v -2.56 -3.84 0
v -2.56 -3.2 0
v -1.92 -3.2 0
v -1.28 -3.84 0
v -1.92 -3.84 0
v -1.92 -3.2 0
v -1.28 -3.2 0
v -11.52 -2.56 0
v -12.16 -2.56 0
v -12.16 -1.92 0
v -11.52 -1.92 0
v -10.88 -2.56 0
v -11.52 -2.56 0
v -11.52 -1.92 0
v -10.88 -1.92 0
v -8.96 -1.92 0
v -9.599999 -1.92 0
v -9.599999 -1.28 0
v -8.96 -1.28 0
v -8.32 -1.92 0
v -8.96 -1.92 0
v -8.96 -1.28 0
v -8.32 -1.28 0
v -7.68 -1.92 0
v -8.32 -1.92 0
v -8.32 -1.28 0
v -7.68 -1.28 0
v -7.04 -1.92 0
v -7.68 -1.92 0
v -7.68 -1.28 0
v -7.04 -1.28 0
v -6.4 -1.92 0
v -7.04 -1.92 0
v -7.04 -1.28 0
v -6.4 -1.28 0
v -5.76 -1.92 0
v -6.4 -1.92 0
v -6.4 -1.28 0
v -5.76 -1.28 0
v -5.12 -1.92 0
v -5.76 -1.92 0
v -5.76 -1.28 0
v -5.12 -1.28 0
v -4.48 -1.92 0
v -5.12 -1.92 0
v -5.12 -1.28 0
v -4.48 -1.28 0
v -1.28 -1.92 0
v -1.92 -1.92 0
v -1.92 -1.28 0
v -1.28 -1.28 0
v -0.64 -1.92 0
v -1.28 -1.92 0
v -1.28 -1.28 0
v -0.64 -1.28 0

# Texture cooridinates (Count = 24)
vt 0.1667887 0.5001221
vt 0.3332113 0.5001221
vt 0.3332113 0.6665446
vt 0.1667887 0.6665446
vt 0.6667888 0.8334554
vt 0.8332112 0.8334554
vt 0.8332112 0.9998779
vt 0.6667888 0.9998779
vt 0.3334554 0.3334554
vt 0.4998779 0.3334554
vt 0.4998779 0.4998779
vt 0.3334554 0.4998779
vt 0.1667887 0.3334554
vt 0.3332113 0.3334554
vt 0.3332113 0.4998779
vt 0.1667887 0.4998779
vt 0.8334554 0.8334554
vt 0.9998779 0.8334554
vt 0.9998779 0.9998779
vt 0.8334554 0.9998779
vt 0.0001220703 0.3334554
vt 0.1665446 0.3334554
vt 0.1665446 0.4998779
vt 0.0001220703 0.4998779

# Normal
vn 0 0 -1

# Mesh description
g Battle-Room_Hard-2_mesh_0002

# Faces
f 1/1/1 2/2/1 3/3/1 4/4/1
f 5/5/1 6/6/1 7/7/1 8/8/1
f 9/9/1 10/10/1 11/11/1 12/12/1
f 13/13/1 14/14/1 15/15/1 16/16/1
f 17/5/1 18/6/1 19/7/1 20/8/1
f 21/17/1 22/18/1 23/19/1 24/20/1
f 25/1/1 26/2/1 27/3/1 28/4/1
f 29/21/1 30/22/1 31/23/1 32/24/1
f 33/17/1 34/18/1 35/19/1 36/20/1
f 37/1/1 38/2/1 39/3/1 40/4/1
f 41/9/1 42/10/1 43/11/1 44/12/1
f 45/13/1 46/14/1 47/15/1 48/16/1
f 49/21/1 50/22/1 51/23/1 52/24/1
f 53/13/1 54/14/1 55/15/1 56/16/1
f 57/13/1 58/14/1 59/15/1 60/16/1
f 61/13/1 62/14/1 63/15/1 64/16/1
f 65/13/1 66/14/1 67/15/1 68/16/1
f 69/21/1 70/22/1 71/23/1 72/24/1
f 73/9/1 74/10/1 75/11/1 76/12/1
f 77/13/1 78/14/1 79/15/1 80/16/1
f 81/13/1 82/14/1 83/15/1 84/16/1
f 85/13/1 86/14/1 87/15/1 88/16/1
f 89/17/1 90/18/1 91/19/1 92/20/1
f 93/21/1 94/22/1 95/23/1 96/24/1
f 97/9/1 98/10/1 99/11/1 100/12/1
f 101/13/1 102/14/1 103/15/1 104/16/1
f 105/13/1 106/14/1 107/15/1 108/16/1
f 109/13/1 110/14/1 111/15/1 112/16/1
f 113/13/1 114/14/1 115/15/1 116/16/1
f 117/13/1 118/14/1 119/15/1 120/16/1
f 121/13/1 122/14/1 123/15/1 124/16/1
f 125/21/1 126/22/1 127/23/1 128/24/1
f 129/9/1 130/10/1 131/11/1 132/12/1
f 133/5/1 134/6/1 135/7/1 136/8/1

