# Tiled2Unity generated file. Do not modify by hand.
# Wavefront file for 'Dead-End_Left-Door-1_mesh_0003.obj'

# Vertices (Count = 252)
v -12.16 -7.04 0
v -12.8 -7.04 0
v -12.8 -6.4 0
v -12.16 -6.4 0
v -9.599999 -7.04 0
v -10.24 -7.04 0
v -10.24 -6.4 0
v -9.599999 -6.4 0
v -7.68 -7.04 0
v -8.32 -7.04 0
v -8.32 -6.4 0
v -7.68 -6.4 0
v -5.12 -7.04 0
v -5.76 -7.04 0
v -5.76 -6.4 0
v -5.12 -6.4 0
v -4.48 -7.04 0
v -5.12 -7.04 0
v -5.12 -6.4 0
v -4.48 -6.4 0
v -3.84 -7.04 0
v -4.48 -7.04 0
v -4.48 -6.4 0
v -3.84 -6.4 0
v -1.28 -7.04 0
v -1.92 -7.04 0
v -1.92 -6.4 0
v -1.28 -6.4 0
v -0.64 -7.04 0
v -1.28 -7.04 0
v -1.28 -6.4 0
v -0.64 -6.4 0
v 0 -7.04 0
v -0.64 -7.04 0
v -0.64 -6.4 0
v 0 -6.4 0
v -12.16 -6.4 0
v -12.8 -6.4 0
v -12.8 -5.76 0
v -12.16 -5.76 0
v -9.599999 -6.4 0
v -10.24 -6.4 0
v -10.24 -5.76 0
v -9.599999 -5.76 0
v -7.68 -6.4 0
v -8.32 -6.4 0
v -8.32 -5.76 0
v -7.68 -5.76 0
v -5.12 -6.4 0
v -5.76 -6.4 0
v -5.76 -5.76 0
v -5.12 -5.76 0
v -4.48 -6.4 0
v -5.12 -6.4 0
v -5.12 -5.76 0
v -4.48 -5.76 0
v -3.84 -6.4 0
v -4.48 -6.4 0
v -4.48 -5.76 0
v -3.84 -5.76 0
v -3.2 -6.4 0
v -3.84 -6.4 0
v -3.84 -5.76 0
v -3.2 -5.76 0
v -1.28 -6.4 0
v -1.92 -6.4 0
v -1.92 -5.76 0
v -1.28 -5.76 0
v -0.64 -6.4 0
v -1.28 -6.4 0
v -1.28 -5.76 0
v -0.64 -5.76 0
v 0 -6.4 0
v -0.64 -6.4 0
v -0.64 -5.76 0
v 0 -5.76 0
v -12.16 -5.76 0
v -12.8 -5.76 0
v -12.8 -5.12 0
v -12.16 -5.12 0
v -9.599999 -5.76 0
v -10.24 -5.76 0
v -10.24 -5.12 0
v -9.599999 -5.12 0
v -7.68 -5.76 0
v -8.32 -5.76 0
v -8.32 -5.12 0
v -7.68 -5.12 0
v -5.12 -5.76 0
v -5.76 -5.76 0
v -5.76 -5.12 0
v -5.12 -5.12 0
v -4.48 -5.76 0
v -5.12 -5.76 0
v -5.12 -5.12 0
v -4.48 -5.12 0
v -3.84 -5.76 0
v -4.48 -5.76 0
v -4.48 -5.12 0
v -3.84 -5.12 0
v -3.2 -5.76 0
v -3.84 -5.76 0
v -3.84 -5.12 0
v -3.2 -5.12 0
v 0 -5.76 0
v -0.64 -5.76 0
v -0.64 -5.12 0
v 0 -5.12 0
v -12.16 -5.12 0
v -12.8 -5.12 0
v -12.8 -4.48 0
v -12.16 -4.48 0
v -7.68 -5.12 0
v -8.32 -5.12 0
v -8.32 -4.48 0
v -7.68 -4.48 0
v 0 -5.12 0
v -0.64 -5.12 0
v -0.64 -4.48 0
v 0 -4.48 0
v -12.16 -4.48 0
v -12.8 -4.48 0
v -12.8 -3.84 0
v -12.16 -3.84 0
v -7.68 -4.48 0
v -8.32 -4.48 0
v -8.32 -3.84 0
v -7.68 -3.84 0
v 0 -4.48 0
v -0.64 -4.48 0
v -0.64 -3.84 0
v 0 -3.84 0
v -12.16 -3.84 0
v -12.8 -3.84 0
v -12.8 -3.2 0
v -12.16 -3.2 0
v 0 -3.84 0
v -0.64 -3.84 0
v -0.64 -3.2 0
v 0 -3.2 0
v -12.16 -3.2 0
v -12.8 -3.2 0
v -12.8 -2.56 0
v -12.16 -2.56 0
v 0 -3.2 0
v -0.64 -3.2 0
v -0.64 -2.56 0
v 0 -2.56 0
v -12.16 -2.56 0
v -12.8 -2.56 0
v -12.8 -1.92 0
v -12.16 -1.92 0
v 0 -2.56 0
v -0.64 -2.56 0
v -0.64 -1.92 0
v 0 -1.92 0
v -12.16 -1.92 0
v -12.8 -1.92 0
v -12.8 -1.28 0
v -12.16 -1.28 0
v 0 -1.92 0
v -0.64 -1.92 0
v -0.64 -1.28 0
v 0 -1.28 0
v -12.16 -1.28 0
v -12.8 -1.28 0
v -12.8 -0.64 0
v -12.16 -0.64 0
v 0 -1.28 0
v -0.64 -1.28 0
v -0.64 -0.64 0
v 0 -0.64 0
v -12.16 -0.64 0
v -12.8 -0.64 0
v -12.8 0 0
v -12.16 0 0
v -11.52 -0.64 0
v -12.16 -0.64 0
v -12.16 0 0
v -11.52 0 0
v -10.88 -0.64 0
v -11.52 -0.64 0
v -11.52 0 0
v -10.88 0 0
v -10.24 -0.64 0
v -10.88 -0.64 0
v -10.88 0 0
v -10.24 0 0
v -9.599999 -0.64 0
v -10.24 -0.64 0
v -10.24 0 0
v -9.599999 0 0
v -8.96 -0.64 0
v -9.599999 -0.64 0
v -9.599999 0 0
v -8.96 0 0
v -8.32 -0.64 0
v -8.96 -0.64 0
v -8.96 0 0
v -8.32 0 0
v -7.68 -0.64 0
v -8.32 -0.64 0
v -8.32 0 0
v -7.68 0 0
v -7.04 -0.64 0
v -7.68 -0.64 0
v -7.68 0 0
v -7.04 0 0
v -6.4 -0.64 0
v -7.04 -0.64 0
v -7.04 0 0
v -6.4 0 0
v -5.76 -0.64 0
v -6.4 -0.64 0
v -6.4 0 0
v -5.76 0 0
v -5.12 -0.64 0
v -5.76 -0.64 0
v -5.76 0 0
v -5.12 0 0
v -4.48 -0.64 0
v -5.12 -0.64 0
v -5.12 0 0
v -4.48 0 0
v -3.84 -0.64 0
v -4.48 -0.64 0
v -4.48 0 0
v -3.84 0 0
v -3.2 -0.64 0
v -3.84 -0.64 0
v -3.84 0 0
v -3.2 0 0
v -2.56 -0.64 0
v -3.2 -0.64 0
v -3.2 0 0
v -2.56 0 0
v -1.92 -0.64 0
v -2.56 -0.64 0
v -2.56 0 0
v -1.92 0 0
v -1.28 -0.64 0
v -1.92 -0.64 0
v -1.92 0 0
v -1.28 0 0
v -0.64 -0.64 0
v -1.28 -0.64 0
v -1.28 0 0
v -0.64 0 0
v 0 -0.64 0
v -0.64 -0.64 0
v -0.64 0 0
v 0 0 0

# Texture cooridinates (Count = 52)
vt 0.5001221 0.5001221
vt 0.6665446 0.5001221
vt 0.6665446 0.6665446
vt 0.5001221 0.6665446
vt 0.0001220703 0.0001220703
vt 0.1665446 0.0001220703
vt 0.1665446 0.1665446
vt 0.0001220703 0.1665446
vt 0.6667888 0.3334554
vt 0.8332112 0.3334554
vt 0.8332112 0.4998779
vt 0.6667888 0.4998779
vt 0.3334554 0.1667888
vt 0.4998779 0.1667888
vt 0.4998779 0.3332112
vt 0.3334554 0.3332112
vt 0.8334554 0.6667887
vt 0.9998779 0.6667887
vt 0.9998779 0.8332112
vt 0.8334554 0.8332112
vt 0.1667887 0.8334554
vt 0.3332113 0.8334554
vt 0.3332113 0.9998779
vt 0.1667887 0.9998779
vt 0.5001221 0.6667887
vt 0.6665446 0.6667887
vt 0.6665446 0.8332112
vt 0.5001221 0.8332112
vt 0.0001220703 0.6667887
vt 0.1665446 0.6667887
vt 0.1665446 0.8332112
vt 0.0001220703 0.8332112
vt 0.1667887 0.0001220703
vt 0.3332113 0.0001220703
vt 0.3332113 0.1665446
vt 0.1667887 0.1665446
vt 0.5001221 0.1667888
vt 0.6665446 0.1667888
vt 0.6665446 0.3332112
vt 0.5001221 0.3332112
vt 0.8334554 0.8334554
vt 0.9998779 0.8334554
vt 0.9998779 0.9998779
vt 0.8334554 0.9998779
vt 0.1667887 0.3334554
vt 0.3332113 0.3334554
vt 0.3332113 0.4998779
vt 0.1667887 0.4998779
vt 0.6667888 0.8334554
vt 0.8332112 0.8334554
vt 0.8332112 0.9998779
vt 0.6667888 0.9998779

# Normal
vn 0 0 -1

# Mesh description
g Dead-End_Left-Door-1_mesh_0003

# Faces
f 1/1/1 2/2/1 3/3/1 4/4/1
f 5/1/1 6/2/1 7/3/1 8/4/1
f 9/1/1 10/2/1 11/3/1 12/4/1
f 13/5/1 14/6/1 15/7/1 16/8/1
f 17/9/1 18/10/1 19/11/1 20/12/1
f 21/13/1 22/14/1 23/15/1 24/16/1
f 25/17/1 26/18/1 27/19/1 28/20/1
f 29/21/1 30/22/1 31/23/1 32/24/1
f 33/1/1 34/2/1 35/3/1 36/4/1
f 37/25/1 38/26/1 39/27/1 40/28/1
f 41/25/1 42/26/1 43/27/1 44/28/1
f 45/25/1 46/26/1 47/27/1 48/28/1
f 49/29/1 50/30/1 51/31/1 52/32/1
f 53/9/1 54/10/1 55/11/1 56/12/1
f 57/9/1 58/10/1 59/11/1 60/12/1
f 61/33/1 62/34/1 63/35/1 64/36/1
f 65/29/1 66/30/1 67/31/1 68/32/1
f 69/9/1 70/10/1 71/11/1 72/12/1
f 73/25/1 74/26/1 75/27/1 76/28/1
f 77/25/1 78/26/1 79/27/1 80/28/1
f 81/37/1 82/38/1 83/39/1 84/40/1
f 85/13/1 86/14/1 87/15/1 88/16/1
f 89/29/1 90/30/1 91/31/1 92/32/1
f 93/9/1 94/10/1 95/11/1 96/12/1
f 97/9/1 98/10/1 99/11/1 100/12/1
f 101/13/1 102/14/1 103/15/1 104/16/1
f 105/25/1 106/26/1 107/27/1 108/28/1
f 109/25/1 110/26/1 111/27/1 112/28/1
f 113/25/1 114/26/1 115/27/1 116/28/1
f 117/25/1 118/26/1 119/27/1 120/28/1
f 121/25/1 122/26/1 123/27/1 124/28/1
f 125/25/1 126/26/1 127/27/1 128/28/1
f 129/25/1 130/26/1 131/27/1 132/28/1
f 133/25/1 134/26/1 135/27/1 136/28/1
f 137/25/1 138/26/1 139/27/1 140/28/1
f 141/25/1 142/26/1 143/27/1 144/28/1
f 145/25/1 146/26/1 147/27/1 148/28/1
f 149/25/1 150/26/1 151/27/1 152/28/1
f 153/25/1 154/26/1 155/27/1 156/28/1
f 157/25/1 158/26/1 159/27/1 160/28/1
f 161/25/1 162/26/1 163/27/1 164/28/1
f 165/25/1 166/26/1 167/27/1 168/28/1
f 169/25/1 170/26/1 171/27/1 172/28/1
f 173/41/1 174/42/1 175/43/1 176/44/1
f 177/45/1 178/46/1 179/47/1 180/48/1
f 181/45/1 182/46/1 183/47/1 184/48/1
f 185/45/1 186/46/1 187/47/1 188/48/1
f 189/45/1 190/46/1 191/47/1 192/48/1
f 193/45/1 194/46/1 195/47/1 196/48/1
f 197/45/1 198/46/1 199/47/1 200/48/1
f 201/45/1 202/46/1 203/47/1 204/48/1
f 205/45/1 206/46/1 207/47/1 208/48/1
f 209/45/1 210/46/1 211/47/1 212/48/1
f 213/45/1 214/46/1 215/47/1 216/48/1
f 217/45/1 218/46/1 219/47/1 220/48/1
f 221/45/1 222/46/1 223/47/1 224/48/1
f 225/45/1 226/46/1 227/47/1 228/48/1
f 229/45/1 230/46/1 231/47/1 232/48/1
f 233/45/1 234/46/1 235/47/1 236/48/1
f 237/45/1 238/46/1 239/47/1 240/48/1
f 241/45/1 242/46/1 243/47/1 244/48/1
f 245/45/1 246/46/1 247/47/1 248/48/1
f 249/49/1 250/50/1 251/51/1 252/52/1

