# Tiled2Unity generated file. Do not modify by hand.
# Wavefront file for 'Battle-Room_Normal-1_mesh_0001.obj'

# Vertices (Count = 880)
v -12.16 -7.04 0
v -12.8 -7.04 0
v -12.8 -6.4 0
v -12.16 -6.4 0
v -11.52 -7.04 0
v -12.16 -7.04 0
v -12.16 -6.4 0
v -11.52 -6.4 0
v -10.88 -7.04 0
v -11.52 -7.04 0
v -11.52 -6.4 0
v -10.88 -6.4 0
v -10.24 -7.04 0
v -10.88 -7.04 0
v -10.88 -6.4 0
v -10.24 -6.4 0
v -9.599999 -7.04 0
v -10.24 -7.04 0
v -10.24 -6.4 0
v -9.599999 -6.4 0
v -8.96 -7.04 0
v -9.599999 -7.04 0
v -9.599999 -6.4 0
v -8.96 -6.4 0
v -8.32 -7.04 0
v -8.96 -7.04 0
v -8.96 -6.4 0
v -8.32 -6.4 0
v -7.68 -7.04 0
v -8.32 -7.04 0
v -8.32 -6.4 0
v -7.68 -6.4 0
v -7.04 -7.04 0
v -7.68 -7.04 0
v -7.68 -6.4 0
v -7.04 -6.4 0
v -6.4 -7.04 0
v -7.04 -7.04 0
v -7.04 -6.4 0
v -6.4 -6.4 0
v -5.76 -7.04 0
v -6.4 -7.04 0
v -6.4 -6.4 0
v -5.76 -6.4 0
v -5.12 -7.04 0
v -5.76 -7.04 0
v -5.76 -6.4 0
v -5.12 -6.4 0
v -4.48 -7.04 0
v -5.12 -7.04 0
v -5.12 -6.4 0
v -4.48 -6.4 0
v -3.84 -7.04 0
v -4.48 -7.04 0
v -4.48 -6.4 0
v -3.84 -6.4 0
v -3.2 -7.04 0
v -3.84 -7.04 0
v -3.84 -6.4 0
v -3.2 -6.4 0
v -2.56 -7.04 0
v -3.2 -7.04 0
v -3.2 -6.4 0
v -2.56 -6.4 0
v -1.92 -7.04 0
v -2.56 -7.04 0
v -2.56 -6.4 0
v -1.92 -6.4 0
v -1.28 -7.04 0
v -1.92 -7.04 0
v -1.92 -6.4 0
v -1.28 -6.4 0
v -0.64 -7.04 0
v -1.28 -7.04 0
v -1.28 -6.4 0
v -0.64 -6.4 0
v 0 -7.04 0
v -0.64 -7.04 0
v -0.64 -6.4 0
v 0 -6.4 0
v -12.16 -6.4 0
v -12.8 -6.4 0
v -12.8 -5.76 0
v -12.16 -5.76 0
v -11.52 -6.4 0
v -12.16 -6.4 0
v -12.16 -5.76 0
v -11.52 -5.76 0
v -10.88 -6.4 0
v -11.52 -6.4 0
v -11.52 -5.76 0
v -10.88 -5.76 0
v -10.24 -6.4 0
v -10.88 -6.4 0
v -10.88 -5.76 0
v -10.24 -5.76 0
v -9.599999 -6.4 0
v -10.24 -6.4 0
v -10.24 -5.76 0
v -9.599999 -5.76 0
v -8.96 -6.4 0
v -9.599999 -6.4 0
v -9.599999 -5.76 0
v -8.96 -5.76 0
v -8.32 -6.4 0
v -8.96 -6.4 0
v -8.96 -5.76 0
v -8.32 -5.76 0
v -7.68 -6.4 0
v -8.32 -6.4 0
v -8.32 -5.76 0
v -7.68 -5.76 0
v -7.04 -6.4 0
v -7.68 -6.4 0
v -7.68 -5.76 0
v -7.04 -5.76 0
v -6.4 -6.4 0
v -7.04 -6.4 0
v -7.04 -5.76 0
v -6.4 -5.76 0
v -5.76 -6.4 0
v -6.4 -6.4 0
v -6.4 -5.76 0
v -5.76 -5.76 0
v -5.12 -6.4 0
v -5.76 -6.4 0
v -5.76 -5.76 0
v -5.12 -5.76 0
v -4.48 -6.4 0
v -5.12 -6.4 0
v -5.12 -5.76 0
v -4.48 -5.76 0
v -3.84 -6.4 0
v -4.48 -6.4 0
v -4.48 -5.76 0
v -3.84 -5.76 0
v -3.2 -6.4 0
v -3.84 -6.4 0
v -3.84 -5.76 0
v -3.2 -5.76 0
v -2.56 -6.4 0
v -3.2 -6.4 0
v -3.2 -5.76 0
v -2.56 -5.76 0
v -1.92 -6.4 0
v -2.56 -6.4 0
v -2.56 -5.76 0
v -1.92 -5.76 0
v -1.28 -6.4 0
v -1.92 -6.4 0
v -1.92 -5.76 0
v -1.28 -5.76 0
v -0.64 -6.4 0
v -1.28 -6.4 0
v -1.28 -5.76 0
v -0.64 -5.76 0
v 0 -6.4 0
v -0.64 -6.4 0
v -0.64 -5.76 0
v 0 -5.76 0
v -12.16 -5.76 0
v -12.8 -5.76 0
v -12.8 -5.12 0
v -12.16 -5.12 0
v -11.52 -5.76 0
v -12.16 -5.76 0
v -12.16 -5.12 0
v -11.52 -5.12 0
v -10.88 -5.76 0
v -11.52 -5.76 0
v -11.52 -5.12 0
v -10.88 -5.12 0
v -10.24 -5.76 0
v -10.88 -5.76 0
v -10.88 -5.12 0
v -10.24 -5.12 0
v -9.599999 -5.76 0
v -10.24 -5.76 0
v -10.24 -5.12 0
v -9.599999 -5.12 0
v -8.96 -5.76 0
v -9.599999 -5.76 0
v -9.599999 -5.12 0
v -8.96 -5.12 0
v -8.32 -5.76 0
v -8.96 -5.76 0
v -8.96 -5.12 0
v -8.32 -5.12 0
v -7.68 -5.76 0
v -8.32 -5.76 0
v -8.32 -5.12 0
v -7.68 -5.12 0
v -7.04 -5.76 0
v -7.68 -5.76 0
v -7.68 -5.12 0
v -7.04 -5.12 0
v -6.4 -5.76 0
v -7.04 -5.76 0
v -7.04 -5.12 0
v -6.4 -5.12 0
v -5.76 -5.76 0
v -6.4 -5.76 0
v -6.4 -5.12 0
v -5.76 -5.12 0
v -5.12 -5.76 0
v -5.76 -5.76 0
v -5.76 -5.12 0
v -5.12 -5.12 0
v -4.48 -5.76 0
v -5.12 -5.76 0
v -5.12 -5.12 0
v -4.48 -5.12 0
v -3.84 -5.76 0
v -4.48 -5.76 0
v -4.48 -5.12 0
v -3.84 -5.12 0
v -3.2 -5.76 0
v -3.84 -5.76 0
v -3.84 -5.12 0
v -3.2 -5.12 0
v -2.56 -5.76 0
v -3.2 -5.76 0
v -3.2 -5.12 0
v -2.56 -5.12 0
v -1.92 -5.76 0
v -2.56 -5.76 0
v -2.56 -5.12 0
v -1.92 -5.12 0
v -1.28 -5.76 0
v -1.92 -5.76 0
v -1.92 -5.12 0
v -1.28 -5.12 0
v -0.64 -5.76 0
v -1.28 -5.76 0
v -1.28 -5.12 0
v -0.64 -5.12 0
v 0 -5.76 0
v -0.64 -5.76 0
v -0.64 -5.12 0
v 0 -5.12 0
v -12.16 -5.12 0
v -12.8 -5.12 0
v -12.8 -4.48 0
v -12.16 -4.48 0
v -11.52 -5.12 0
v -12.16 -5.12 0
v -12.16 -4.48 0
v -11.52 -4.48 0
v -10.88 -5.12 0
v -11.52 -5.12 0
v -11.52 -4.48 0
v -10.88 -4.48 0
v -10.24 -5.12 0
v -10.88 -5.12 0
v -10.88 -4.48 0
v -10.24 -4.48 0
v -9.599999 -5.12 0
v -10.24 -5.12 0
v -10.24 -4.48 0
v -9.599999 -4.48 0
v -8.96 -5.12 0
v -9.599999 -5.12 0
v -9.599999 -4.48 0
v -8.96 -4.48 0
v -8.32 -5.12 0
v -8.96 -5.12 0
v -8.96 -4.48 0
v -8.32 -4.48 0
v -7.68 -5.12 0
v -8.32 -5.12 0
v -8.32 -4.48 0
v -7.68 -4.48 0
v -7.04 -5.12 0
v -7.68 -5.12 0
v -7.68 -4.48 0
v -7.04 -4.48 0
v -6.4 -5.12 0
v -7.04 -5.12 0
v -7.04 -4.48 0
v -6.4 -4.48 0
v -5.76 -5.12 0
v -6.4 -5.12 0
v -6.4 -4.48 0
v -5.76 -4.48 0
v -5.12 -5.12 0
v -5.76 -5.12 0
v -5.76 -4.48 0
v -5.12 -4.48 0
v -4.48 -5.12 0
v -5.12 -5.12 0
v -5.12 -4.48 0
v -4.48 -4.48 0
v -3.84 -5.12 0
v -4.48 -5.12 0
v -4.48 -4.48 0
v -3.84 -4.48 0
v -3.2 -5.12 0
v -3.84 -5.12 0
v -3.84 -4.48 0
v -3.2 -4.48 0
v -2.56 -5.12 0
v -3.2 -5.12 0
v -3.2 -4.48 0
v -2.56 -4.48 0
v -1.92 -5.12 0
v -2.56 -5.12 0
v -2.56 -4.48 0
v -1.92 -4.48 0
v -1.28 -5.12 0
v -1.92 -5.12 0
v -1.92 -4.48 0
v -1.28 -4.48 0
v -0.64 -5.12 0
v -1.28 -5.12 0
v -1.28 -4.48 0
v -0.64 -4.48 0
v 0 -5.12 0
v -0.64 -5.12 0
v -0.64 -4.48 0
v 0 -4.48 0
v -12.16 -4.48 0
v -12.8 -4.48 0
v -12.8 -3.84 0
v -12.16 -3.84 0
v -11.52 -4.48 0
v -12.16 -4.48 0
v -12.16 -3.84 0
v -11.52 -3.84 0
v -10.88 -4.48 0
v -11.52 -4.48 0
v -11.52 -3.84 0
v -10.88 -3.84 0
v -10.24 -4.48 0
v -10.88 -4.48 0
v -10.88 -3.84 0
v -10.24 -3.84 0
v -9.599999 -4.48 0
v -10.24 -4.48 0
v -10.24 -3.84 0
v -9.599999 -3.84 0
v -8.96 -4.48 0
v -9.599999 -4.48 0
v -9.599999 -3.84 0
v -8.96 -3.84 0
v -8.32 -4.48 0
v -8.96 -4.48 0
v -8.96 -3.84 0
v -8.32 -3.84 0
v -7.68 -4.48 0
v -8.32 -4.48 0
v -8.32 -3.84 0
v -7.68 -3.84 0
v -7.04 -4.48 0
v -7.68 -4.48 0
v -7.68 -3.84 0
v -7.04 -3.84 0
v -6.4 -4.48 0
v -7.04 -4.48 0
v -7.04 -3.84 0
v -6.4 -3.84 0
v -5.76 -4.48 0
v -6.4 -4.48 0
v -6.4 -3.84 0
v -5.76 -3.84 0
v -5.12 -4.48 0
v -5.76 -4.48 0
v -5.76 -3.84 0
v -5.12 -3.84 0
v -4.48 -4.48 0
v -5.12 -4.48 0
v -5.12 -3.84 0
v -4.48 -3.84 0
v -3.84 -4.48 0
v -4.48 -4.48 0
v -4.48 -3.84 0
v -3.84 -3.84 0
v -3.2 -4.48 0
v -3.84 -4.48 0
v -3.84 -3.84 0
v -3.2 -3.84 0
v -2.56 -4.48 0
v -3.2 -4.48 0
v -3.2 -3.84 0
v -2.56 -3.84 0
v -1.92 -4.48 0
v -2.56 -4.48 0
v -2.56 -3.84 0
v -1.92 -3.84 0
v -1.28 -4.48 0
v -1.92 -4.48 0
v -1.92 -3.84 0
v -1.28 -3.84 0
v -0.64 -4.48 0
v -1.28 -4.48 0
v -1.28 -3.84 0
v -0.64 -3.84 0
v 0 -4.48 0
v -0.64 -4.48 0
v -0.64 -3.84 0
v 0 -3.84 0
v -12.16 -3.84 0
v -12.8 -3.84 0
v -12.8 -3.2 0
v -12.16 -3.2 0
v -11.52 -3.84 0
v -12.16 -3.84 0
v -12.16 -3.2 0
v -11.52 -3.2 0
v -10.88 -3.84 0
v -11.52 -3.84 0
v -11.52 -3.2 0
v -10.88 -3.2 0
v -10.24 -3.84 0
v -10.88 -3.84 0
v -10.88 -3.2 0
v -10.24 -3.2 0
v -9.599999 -3.84 0
v -10.24 -3.84 0
v -10.24 -3.2 0
v -9.599999 -3.2 0
v -8.96 -3.84 0
v -9.599999 -3.84 0
v -9.599999 -3.2 0
v -8.96 -3.2 0
v -8.32 -3.84 0
v -8.96 -3.84 0
v -8.96 -3.2 0
v -8.32 -3.2 0
v -7.68 -3.84 0
v -8.32 -3.84 0
v -8.32 -3.2 0
v -7.68 -3.2 0
v -7.04 -3.84 0
v -7.68 -3.84 0
v -7.68 -3.2 0
v -7.04 -3.2 0
v -6.4 -3.84 0
v -7.04 -3.84 0
v -7.04 -3.2 0
v -6.4 -3.2 0
v -5.76 -3.84 0
v -6.4 -3.84 0
v -6.4 -3.2 0
v -5.76 -3.2 0
v -5.12 -3.84 0
v -5.76 -3.84 0
v -5.76 -3.2 0
v -5.12 -3.2 0
v -4.48 -3.84 0
v -5.12 -3.84 0
v -5.12 -3.2 0
v -4.48 -3.2 0
v -3.84 -3.84 0
v -4.48 -3.84 0
v -4.48 -3.2 0
v -3.84 -3.2 0
v -3.2 -3.84 0
v -3.84 -3.84 0
v -3.84 -3.2 0
v -3.2 -3.2 0
v -2.56 -3.84 0
v -3.2 -3.84 0
v -3.2 -3.2 0
v -2.56 -3.2 0
v -1.92 -3.84 0
v -2.56 -3.84 0
v -2.56 -3.2 0
v -1.92 -3.2 0
v -1.28 -3.84 0
v -1.92 -3.84 0
v -1.92 -3.2 0
v -1.28 -3.2 0
v -0.64 -3.84 0
v -1.28 -3.84 0
v -1.28 -3.2 0
v -0.64 -3.2 0
v 0 -3.84 0
v -0.64 -3.84 0
v -0.64 -3.2 0
v 0 -3.2 0
v -12.16 -3.2 0
v -12.8 -3.2 0
v -12.8 -2.56 0
v -12.16 -2.56 0
v -11.52 -3.2 0
v -12.16 -3.2 0
v -12.16 -2.56 0
v -11.52 -2.56 0
v -10.88 -3.2 0
v -11.52 -3.2 0
v -11.52 -2.56 0
v -10.88 -2.56 0
v -10.24 -3.2 0
v -10.88 -3.2 0
v -10.88 -2.56 0
v -10.24 -2.56 0
v -9.599999 -3.2 0
v -10.24 -3.2 0
v -10.24 -2.56 0
v -9.599999 -2.56 0
v -8.96 -3.2 0
v -9.599999 -3.2 0
v -9.599999 -2.56 0
v -8.96 -2.56 0
v -8.32 -3.2 0
v -8.96 -3.2 0
v -8.96 -2.56 0
v -8.32 -2.56 0
v -7.68 -3.2 0
v -8.32 -3.2 0
v -8.32 -2.56 0
v -7.68 -2.56 0
v -7.04 -3.2 0
v -7.68 -3.2 0
v -7.68 -2.56 0
v -7.04 -2.56 0
v -6.4 -3.2 0
v -7.04 -3.2 0
v -7.04 -2.56 0
v -6.4 -2.56 0
v -5.76 -3.2 0
v -6.4 -3.2 0
v -6.4 -2.56 0
v -5.76 -2.56 0
v -5.12 -3.2 0
v -5.76 -3.2 0
v -5.76 -2.56 0
v -5.12 -2.56 0
v -4.48 -3.2 0
v -5.12 -3.2 0
v -5.12 -2.56 0
v -4.48 -2.56 0
v -3.84 -3.2 0
v -4.48 -3.2 0
v -4.48 -2.56 0
v -3.84 -2.56 0
v -3.2 -3.2 0
v -3.84 -3.2 0
v -3.84 -2.56 0
v -3.2 -2.56 0
v -2.56 -3.2 0
v -3.2 -3.2 0
v -3.2 -2.56 0
v -2.56 -2.56 0
v -1.92 -3.2 0
v -2.56 -3.2 0
v -2.56 -2.56 0
v -1.92 -2.56 0
v -1.28 -3.2 0
v -1.92 -3.2 0
v -1.92 -2.56 0
v -1.28 -2.56 0
v -0.64 -3.2 0
v -1.28 -3.2 0
v -1.28 -2.56 0
v -0.64 -2.56 0
v 0 -3.2 0
v -0.64 -3.2 0
v -0.64 -2.56 0
v 0 -2.56 0
v -12.16 -2.56 0
v -12.8 -2.56 0
v -12.8 -1.92 0
v -12.16 -1.92 0
v -11.52 -2.56 0
v -12.16 -2.56 0
v -12.16 -1.92 0
v -11.52 -1.92 0
v -10.88 -2.56 0
v -11.52 -2.56 0
v -11.52 -1.92 0
v -10.88 -1.92 0
v -10.24 -2.56 0
v -10.88 -2.56 0
v -10.88 -1.92 0
v -10.24 -1.92 0
v -9.599999 -2.56 0
v -10.24 -2.56 0
v -10.24 -1.92 0
v -9.599999 -1.92 0
v -8.96 -2.56 0
v -9.599999 -2.56 0
v -9.599999 -1.92 0
v -8.96 -1.92 0
v -8.32 -2.56 0
v -8.96 -2.56 0
v -8.96 -1.92 0
v -8.32 -1.92 0
v -7.68 -2.56 0
v -8.32 -2.56 0
v -8.32 -1.92 0
v -7.68 -1.92 0
v -7.04 -2.56 0
v -7.68 -2.56 0
v -7.68 -1.92 0
v -7.04 -1.92 0
v -6.4 -2.56 0
v -7.04 -2.56 0
v -7.04 -1.92 0
v -6.4 -1.92 0
v -5.76 -2.56 0
v -6.4 -2.56 0
v -6.4 -1.92 0
v -5.76 -1.92 0
v -5.12 -2.56 0
v -5.76 -2.56 0
v -5.76 -1.92 0
v -5.12 -1.92 0
v -4.48 -2.56 0
v -5.12 -2.56 0
v -5.12 -1.92 0
v -4.48 -1.92 0
v -3.84 -2.56 0
v -4.48 -2.56 0
v -4.48 -1.92 0
v -3.84 -1.92 0
v -3.2 -2.56 0
v -3.84 -2.56 0
v -3.84 -1.92 0
v -3.2 -1.92 0
v -2.56 -2.56 0
v -3.2 -2.56 0
v -3.2 -1.92 0
v -2.56 -1.92 0
v -1.92 -2.56 0
v -2.56 -2.56 0
v -2.56 -1.92 0
v -1.92 -1.92 0
v -1.28 -2.56 0
v -1.92 -2.56 0
v -1.92 -1.92 0
v -1.28 -1.92 0
v -0.64 -2.56 0
v -1.28 -2.56 0
v -1.28 -1.92 0
v -0.64 -1.92 0
v 0 -2.56 0
v -0.64 -2.56 0
v -0.64 -1.92 0
v 0 -1.92 0
v -12.16 -1.92 0
v -12.8 -1.92 0
v -12.8 -1.28 0
v -12.16 -1.28 0
v -11.52 -1.92 0
v -12.16 -1.92 0
v -12.16 -1.28 0
v -11.52 -1.28 0
v -10.88 -1.92 0
v -11.52 -1.92 0
v -11.52 -1.28 0
v -10.88 -1.28 0
v -10.24 -1.92 0
v -10.88 -1.92 0
v -10.88 -1.28 0
v -10.24 -1.28 0
v -9.599999 -1.92 0
v -10.24 -1.92 0
v -10.24 -1.28 0
v -9.599999 -1.28 0
v -8.96 -1.92 0
v -9.599999 -1.92 0
v -9.599999 -1.28 0
v -8.96 -1.28 0
v -8.32 -1.92 0
v -8.96 -1.92 0
v -8.96 -1.28 0
v -8.32 -1.28 0
v -7.68 -1.92 0
v -8.32 -1.92 0
v -8.32 -1.28 0
v -7.68 -1.28 0
v -7.04 -1.92 0
v -7.68 -1.92 0
v -7.68 -1.28 0
v -7.04 -1.28 0
v -6.4 -1.92 0
v -7.04 -1.92 0
v -7.04 -1.28 0
v -6.4 -1.28 0
v -5.76 -1.92 0
v -6.4 -1.92 0
v -6.4 -1.28 0
v -5.76 -1.28 0
v -5.12 -1.92 0
v -5.76 -1.92 0
v -5.76 -1.28 0
v -5.12 -1.28 0
v -4.48 -1.92 0
v -5.12 -1.92 0
v -5.12 -1.28 0
v -4.48 -1.28 0
v -3.84 -1.92 0
v -4.48 -1.92 0
v -4.48 -1.28 0
v -3.84 -1.28 0
v -3.2 -1.92 0
v -3.84 -1.92 0
v -3.84 -1.28 0
v -3.2 -1.28 0
v -2.56 -1.92 0
v -3.2 -1.92 0
v -3.2 -1.28 0
v -2.56 -1.28 0
v -1.92 -1.92 0
v -2.56 -1.92 0
v -2.56 -1.28 0
v -1.92 -1.28 0
v -1.28 -1.92 0
v -1.92 -1.92 0
v -1.92 -1.28 0
v -1.28 -1.28 0
v -0.64 -1.92 0
v -1.28 -1.92 0
v -1.28 -1.28 0
v -0.64 -1.28 0
v 0 -1.92 0
v -0.64 -1.92 0
v -0.64 -1.28 0
v 0 -1.28 0
v -12.16 -1.28 0
v -12.8 -1.28 0
v -12.8 -0.64 0
v -12.16 -0.64 0
v -11.52 -1.28 0
v -12.16 -1.28 0
v -12.16 -0.64 0
v -11.52 -0.64 0
v -10.88 -1.28 0
v -11.52 -1.28 0
v -11.52 -0.64 0
v -10.88 -0.64 0
v -10.24 -1.28 0
v -10.88 -1.28 0
v -10.88 -0.64 0
v -10.24 -0.64 0
v -9.599999 -1.28 0
v -10.24 -1.28 0
v -10.24 -0.64 0
v -9.599999 -0.64 0
v -8.96 -1.28 0
v -9.599999 -1.28 0
v -9.599999 -0.64 0
v -8.96 -0.64 0
v -8.32 -1.28 0
v -8.96 -1.28 0
v -8.96 -0.64 0
v -8.32 -0.64 0
v -7.68 -1.28 0
v -8.32 -1.28 0
v -8.32 -0.64 0
v -7.68 -0.64 0
v -7.04 -1.28 0
v -7.68 -1.28 0
v -7.68 -0.64 0
v -7.04 -0.64 0
v -6.4 -1.28 0
v -7.04 -1.28 0
v -7.04 -0.64 0
v -6.4 -0.64 0
v -5.76 -1.28 0
v -6.4 -1.28 0
v -6.4 -0.64 0
v -5.76 -0.64 0
v -5.12 -1.28 0
v -5.76 -1.28 0
v -5.76 -0.64 0
v -5.12 -0.64 0
v -4.48 -1.28 0
v -5.12 -1.28 0
v -5.12 -0.64 0
v -4.48 -0.64 0
v -3.84 -1.28 0
v -4.48 -1.28 0
v -4.48 -0.64 0
v -3.84 -0.64 0
v -3.2 -1.28 0
v -3.84 -1.28 0
v -3.84 -0.64 0
v -3.2 -0.64 0
v -2.56 -1.28 0
v -3.2 -1.28 0
v -3.2 -0.64 0
v -2.56 -0.64 0
v -1.92 -1.28 0
v -2.56 -1.28 0
v -2.56 -0.64 0
v -1.92 -0.64 0
v -1.28 -1.28 0
v -1.92 -1.28 0
v -1.92 -0.64 0
v -1.28 -0.64 0
v -0.64 -1.28 0
v -1.28 -1.28 0
v -1.28 -0.64 0
v -0.64 -0.64 0
v 0 -1.28 0
v -0.64 -1.28 0
v -0.64 -0.64 0
v 0 -0.64 0
v -12.16 -0.64 0
v -12.8 -0.64 0
v -12.8 0 0
v -12.16 0 0
v -11.52 -0.64 0
v -12.16 -0.64 0
v -12.16 0 0
v -11.52 0 0
v -10.88 -0.64 0
v -11.52 -0.64 0
v -11.52 0 0
v -10.88 0 0
v -10.24 -0.64 0
v -10.88 -0.64 0
v -10.88 0 0
v -10.24 0 0
v -9.599999 -0.64 0
v -10.24 -0.64 0
v -10.24 0 0
v -9.599999 0 0
v -8.96 -0.64 0
v -9.599999 -0.64 0
v -9.599999 0 0
v -8.96 0 0
v -8.32 -0.64 0
v -8.96 -0.64 0
v -8.96 0 0
v -8.32 0 0
v -7.68 -0.64 0
v -8.32 -0.64 0
v -8.32 0 0
v -7.68 0 0
v -7.04 -0.64 0
v -7.68 -0.64 0
v -7.68 0 0
v -7.04 0 0
v -6.4 -0.64 0
v -7.04 -0.64 0
v -7.04 0 0
v -6.4 0 0
v -5.76 -0.64 0
v -6.4 -0.64 0
v -6.4 0 0
v -5.76 0 0
v -5.12 -0.64 0
v -5.76 -0.64 0
v -5.76 0 0
v -5.12 0 0
v -4.48 -0.64 0
v -5.12 -0.64 0
v -5.12 0 0
v -4.48 0 0
v -3.84 -0.64 0
v -4.48 -0.64 0
v -4.48 0 0
v -3.84 0 0
v -3.2 -0.64 0
v -3.84 -0.64 0
v -3.84 0 0
v -3.2 0 0
v -2.56 -0.64 0
v -3.2 -0.64 0
v -3.2 0 0
v -2.56 0 0
v -1.92 -0.64 0
v -2.56 -0.64 0
v -2.56 0 0
v -1.92 0 0
v -1.28 -0.64 0
v -1.92 -0.64 0
v -1.92 0 0
v -1.28 0 0
v -0.64 -0.64 0
v -1.28 -0.64 0
v -1.28 0 0
v -0.64 0 0
v 0 -0.64 0
v -0.64 -0.64 0
v -0.64 0 0
v 0 0 0

# Texture cooridinates (Count = 64)
vt 0.0001220703 0.0001220703
vt 0.2498779 0.0001220703
vt 0.2498779 0.2498779
vt 0.0001220703 0.2498779
vt 0.7501221 0.0001220703
vt 0.9998779 0.0001220703
vt 0.9998779 0.2498779
vt 0.7501221 0.2498779
vt 0.2501221 0.0001220703
vt 0.4998779 0.0001220703
vt 0.4998779 0.2498779
vt 0.2501221 0.2498779
vt 0.5001221 0.0001220703
vt 0.7498779 0.0001220703
vt 0.7498779 0.2498779
vt 0.5001221 0.2498779
vt 0.0001220703 0.7501221
vt 0.2498779 0.7501221
vt 0.2498779 0.9998779
vt 0.0001220703 0.9998779
vt 0.7501221 0.7501221
vt 0.9998779 0.7501221
vt 0.9998779 0.9998779
vt 0.7501221 0.9998779
vt 0.2501221 0.7501221
vt 0.4998779 0.7501221
vt 0.4998779 0.9998779
vt 0.2501221 0.9998779
vt 0.5001221 0.7501221
vt 0.7498779 0.7501221
vt 0.7498779 0.9998779
vt 0.5001221 0.9998779
vt 0.0001220703 0.2501221
vt 0.2498779 0.2501221
vt 0.2498779 0.4998779
vt 0.0001220703 0.4998779
vt 0.7501221 0.2501221
vt 0.9998779 0.2501221
vt 0.9998779 0.4998779
vt 0.7501221 0.4998779
vt 0.2501221 0.2501221
vt 0.4998779 0.2501221
vt 0.4998779 0.4998779
vt 0.2501221 0.4998779
vt 0.5001221 0.2501221
vt 0.7498779 0.2501221
vt 0.7498779 0.4998779
vt 0.5001221 0.4998779
vt 0.7501221 0.5001221
vt 0.9998779 0.5001221
vt 0.9998779 0.7498779
vt 0.7501221 0.7498779
vt 0.2501221 0.5001221
vt 0.4998779 0.5001221
vt 0.4998779 0.7498779
vt 0.2501221 0.7498779
vt 0.5001221 0.5001221
vt 0.7498779 0.5001221
vt 0.7498779 0.7498779
vt 0.5001221 0.7498779
vt 0.0001220703 0.5001221
vt 0.2498779 0.5001221
vt 0.2498779 0.7498779
vt 0.0001220703 0.7498779

# Normal
vn 0 0 -1

# Mesh description
g Battle-Room_Normal-1_mesh_0001

# Faces
f 1/1/1 2/2/1 3/3/1 4/4/1
f 5/5/1 6/6/1 7/7/1 8/8/1
f 9/9/1 10/10/1 11/11/1 12/12/1
f 13/13/1 14/14/1 15/15/1 16/16/1
f 17/9/1 18/10/1 19/11/1 20/12/1
f 21/9/1 22/10/1 23/11/1 24/12/1
f 25/9/1 26/10/1 27/11/1 28/12/1
f 29/9/1 30/10/1 31/11/1 32/12/1
f 33/9/1 34/10/1 35/11/1 36/12/1
f 37/9/1 38/10/1 39/11/1 40/12/1
f 41/9/1 42/10/1 43/11/1 44/12/1
f 45/9/1 46/10/1 47/11/1 48/12/1
f 49/9/1 50/10/1 51/11/1 52/12/1
f 53/9/1 54/10/1 55/11/1 56/12/1
f 57/9/1 58/10/1 59/11/1 60/12/1
f 61/9/1 62/10/1 63/11/1 64/12/1
f 65/13/1 66/14/1 67/15/1 68/16/1
f 69/9/1 70/10/1 71/11/1 72/12/1
f 73/1/1 74/2/1 75/3/1 76/4/1
f 77/5/1 78/6/1 79/7/1 80/8/1
f 81/17/1 82/18/1 83/19/1 84/20/1
f 85/21/1 86/22/1 87/23/1 88/24/1
f 89/25/1 90/26/1 91/27/1 92/28/1
f 93/29/1 94/30/1 95/31/1 96/32/1
f 97/25/1 98/26/1 99/27/1 100/28/1
f 101/25/1 102/26/1 103/27/1 104/28/1
f 105/25/1 106/26/1 107/27/1 108/28/1
f 109/25/1 110/26/1 111/27/1 112/28/1
f 113/25/1 114/26/1 115/27/1 116/28/1
f 117/25/1 118/26/1 119/27/1 120/28/1
f 121/25/1 122/26/1 123/27/1 124/28/1
f 125/25/1 126/26/1 127/27/1 128/28/1
f 129/25/1 130/26/1 131/27/1 132/28/1
f 133/25/1 134/26/1 135/27/1 136/28/1
f 137/25/1 138/26/1 139/27/1 140/28/1
f 141/25/1 142/26/1 143/27/1 144/28/1
f 145/29/1 146/30/1 147/31/1 148/32/1
f 149/25/1 150/26/1 151/27/1 152/28/1
f 153/17/1 154/18/1 155/19/1 156/20/1
f 157/21/1 158/22/1 159/23/1 160/24/1
f 161/1/1 162/2/1 163/3/1 164/4/1
f 165/5/1 166/6/1 167/7/1 168/8/1
f 169/9/1 170/10/1 171/11/1 172/12/1
f 173/13/1 174/14/1 175/15/1 176/16/1
f 177/9/1 178/10/1 179/11/1 180/12/1
f 181/9/1 182/10/1 183/11/1 184/12/1
f 185/9/1 186/10/1 187/11/1 188/12/1
f 189/9/1 190/10/1 191/11/1 192/12/1
f 193/9/1 194/10/1 195/11/1 196/12/1
f 197/9/1 198/10/1 199/11/1 200/12/1
f 201/9/1 202/10/1 203/11/1 204/12/1
f 205/9/1 206/10/1 207/11/1 208/12/1
f 209/9/1 210/10/1 211/11/1 212/12/1
f 213/9/1 214/10/1 215/11/1 216/12/1
f 217/9/1 218/10/1 219/11/1 220/12/1
f 221/9/1 222/10/1 223/11/1 224/12/1
f 225/13/1 226/14/1 227/15/1 228/16/1
f 229/9/1 230/10/1 231/11/1 232/12/1
f 233/1/1 234/2/1 235/3/1 236/4/1
f 237/5/1 238/6/1 239/7/1 240/8/1
f 241/33/1 242/34/1 243/35/1 244/36/1
f 245/37/1 246/38/1 247/39/1 248/40/1
f 249/41/1 250/42/1 251/43/1 252/44/1
f 253/45/1 254/46/1 255/47/1 256/48/1
f 257/41/1 258/42/1 259/43/1 260/44/1
f 261/41/1 262/42/1 263/43/1 264/44/1
f 265/41/1 266/42/1 267/43/1 268/44/1
f 269/41/1 270/42/1 271/43/1 272/44/1
f 273/41/1 274/42/1 275/43/1 276/44/1
f 277/41/1 278/42/1 279/43/1 280/44/1
f 281/41/1 282/42/1 283/43/1 284/44/1
f 285/41/1 286/42/1 287/43/1 288/44/1
f 289/41/1 290/42/1 291/43/1 292/44/1
f 293/41/1 294/42/1 295/43/1 296/44/1
f 297/41/1 298/42/1 299/43/1 300/44/1
f 301/41/1 302/42/1 303/43/1 304/44/1
f 305/45/1 306/46/1 307/47/1 308/48/1
f 309/41/1 310/42/1 311/43/1 312/44/1
f 313/33/1 314/34/1 315/35/1 316/36/1
f 317/37/1 318/38/1 319/39/1 320/40/1
f 321/33/1 322/34/1 323/35/1 324/36/1
f 325/37/1 326/38/1 327/39/1 328/40/1
f 329/41/1 330/42/1 331/43/1 332/44/1
f 333/45/1 334/46/1 335/47/1 336/48/1
f 337/41/1 338/42/1 339/43/1 340/44/1
f 341/41/1 342/42/1 343/43/1 344/44/1
f 345/41/1 346/42/1 347/43/1 348/44/1
f 349/41/1 350/42/1 351/43/1 352/44/1
f 353/41/1 354/42/1 355/43/1 356/44/1
f 357/41/1 358/42/1 359/43/1 360/44/1
f 361/41/1 362/42/1 363/43/1 364/44/1
f 365/41/1 366/42/1 367/43/1 368/44/1
f 369/41/1 370/42/1 371/43/1 372/44/1
f 373/41/1 374/42/1 375/43/1 376/44/1
f 377/41/1 378/42/1 379/43/1 380/44/1
f 381/41/1 382/42/1 383/43/1 384/44/1
f 385/45/1 386/46/1 387/47/1 388/48/1
f 389/41/1 390/42/1 391/43/1 392/44/1
f 393/33/1 394/34/1 395/35/1 396/36/1
f 397/37/1 398/38/1 399/39/1 400/40/1
f 401/33/1 402/34/1 403/35/1 404/36/1
f 405/37/1 406/38/1 407/39/1 408/40/1
f 409/41/1 410/42/1 411/43/1 412/44/1
f 413/45/1 414/46/1 415/47/1 416/48/1
f 417/41/1 418/42/1 419/43/1 420/44/1
f 421/41/1 422/42/1 423/43/1 424/44/1
f 425/41/1 426/42/1 427/43/1 428/44/1
f 429/41/1 430/42/1 431/43/1 432/44/1
f 433/41/1 434/42/1 435/43/1 436/44/1
f 437/41/1 438/42/1 439/43/1 440/44/1
f 441/41/1 442/42/1 443/43/1 444/44/1
f 445/41/1 446/42/1 447/43/1 448/44/1
f 449/41/1 450/42/1 451/43/1 452/44/1
f 453/41/1 454/42/1 455/43/1 456/44/1
f 457/41/1 458/42/1 459/43/1 460/44/1
f 461/41/1 462/42/1 463/43/1 464/44/1
f 465/45/1 466/46/1 467/47/1 468/48/1
f 469/41/1 470/42/1 471/43/1 472/44/1
f 473/33/1 474/34/1 475/35/1 476/36/1
f 477/37/1 478/38/1 479/39/1 480/40/1
f 481/33/1 482/34/1 483/35/1 484/36/1
f 485/49/1 486/50/1 487/51/1 488/52/1
f 489/53/1 490/54/1 491/55/1 492/56/1
f 493/57/1 494/58/1 495/59/1 496/60/1
f 497/53/1 498/54/1 499/55/1 500/56/1
f 501/53/1 502/54/1 503/55/1 504/56/1
f 505/53/1 506/54/1 507/55/1 508/56/1
f 509/53/1 510/54/1 511/55/1 512/56/1
f 513/53/1 514/54/1 515/55/1 516/56/1
f 517/53/1 518/54/1 519/55/1 520/56/1
f 521/53/1 522/54/1 523/55/1 524/56/1
f 525/53/1 526/54/1 527/55/1 528/56/1
f 529/53/1 530/54/1 531/55/1 532/56/1
f 533/53/1 534/54/1 535/55/1 536/56/1
f 537/53/1 538/54/1 539/55/1 540/56/1
f 541/53/1 542/54/1 543/55/1 544/56/1
f 545/57/1 546/58/1 547/59/1 548/60/1
f 549/53/1 550/54/1 551/55/1 552/56/1
f 553/61/1 554/62/1 555/63/1 556/64/1
f 557/37/1 558/38/1 559/39/1 560/40/1
f 561/33/1 562/34/1 563/35/1 564/36/1
f 565/37/1 566/38/1 567/39/1 568/40/1
f 569/41/1 570/42/1 571/43/1 572/44/1
f 573/45/1 574/46/1 575/47/1 576/48/1
f 577/41/1 578/42/1 579/43/1 580/44/1
f 581/41/1 582/42/1 583/43/1 584/44/1
f 585/41/1 586/42/1 587/43/1 588/44/1
f 589/41/1 590/42/1 591/43/1 592/44/1
f 593/41/1 594/42/1 595/43/1 596/44/1
f 597/41/1 598/42/1 599/43/1 600/44/1
f 601/41/1 602/42/1 603/43/1 604/44/1
f 605/41/1 606/42/1 607/43/1 608/44/1
f 609/41/1 610/42/1 611/43/1 612/44/1
f 613/41/1 614/42/1 615/43/1 616/44/1
f 617/41/1 618/42/1 619/43/1 620/44/1
f 621/41/1 622/42/1 623/43/1 624/44/1
f 625/45/1 626/46/1 627/47/1 628/48/1
f 629/41/1 630/42/1 631/43/1 632/44/1
f 633/33/1 634/34/1 635/35/1 636/36/1
f 637/37/1 638/38/1 639/39/1 640/40/1
f 641/33/1 642/34/1 643/35/1 644/36/1
f 645/37/1 646/38/1 647/39/1 648/40/1
f 649/41/1 650/42/1 651/43/1 652/44/1
f 653/45/1 654/46/1 655/47/1 656/48/1
f 657/41/1 658/42/1 659/43/1 660/44/1
f 661/41/1 662/42/1 663/43/1 664/44/1
f 665/41/1 666/42/1 667/43/1 668/44/1
f 669/41/1 670/42/1 671/43/1 672/44/1
f 673/41/1 674/42/1 675/43/1 676/44/1
f 677/41/1 678/42/1 679/43/1 680/44/1
f 681/41/1 682/42/1 683/43/1 684/44/1
f 685/41/1 686/42/1 687/43/1 688/44/1
f 689/41/1 690/42/1 691/43/1 692/44/1
f 693/41/1 694/42/1 695/43/1 696/44/1
f 697/41/1 698/42/1 699/43/1 700/44/1
f 701/41/1 702/42/1 703/43/1 704/44/1
f 705/45/1 706/46/1 707/47/1 708/48/1
f 709/41/1 710/42/1 711/43/1 712/44/1
f 713/33/1 714/34/1 715/35/1 716/36/1
f 717/37/1 718/38/1 719/39/1 720/40/1
f 721/17/1 722/18/1 723/19/1 724/20/1
f 725/21/1 726/22/1 727/23/1 728/24/1
f 729/25/1 730/26/1 731/27/1 732/28/1
f 733/29/1 734/30/1 735/31/1 736/32/1
f 737/25/1 738/26/1 739/27/1 740/28/1
f 741/25/1 742/26/1 743/27/1 744/28/1
f 745/25/1 746/26/1 747/27/1 748/28/1
f 749/25/1 750/26/1 751/27/1 752/28/1
f 753/25/1 754/26/1 755/27/1 756/28/1
f 757/25/1 758/26/1 759/27/1 760/28/1
f 761/25/1 762/26/1 763/27/1 764/28/1
f 765/25/1 766/26/1 767/27/1 768/28/1
f 769/25/1 770/26/1 771/27/1 772/28/1
f 773/25/1 774/26/1 775/27/1 776/28/1
f 777/25/1 778/26/1 779/27/1 780/28/1
f 781/25/1 782/26/1 783/27/1 784/28/1
f 785/29/1 786/30/1 787/31/1 788/32/1
f 789/25/1 790/26/1 791/27/1 792/28/1
f 793/17/1 794/18/1 795/19/1 796/20/1
f 797/21/1 798/22/1 799/23/1 800/24/1
f 801/1/1 802/2/1 803/3/1 804/4/1
f 805/5/1 806/6/1 807/7/1 808/8/1
f 809/9/1 810/10/1 811/11/1 812/12/1
f 813/9/1 814/10/1 815/11/1 816/12/1
f 817/9/1 818/10/1 819/11/1 820/12/1
f 821/9/1 822/10/1 823/11/1 824/12/1
f 825/9/1 826/10/1 827/11/1 828/12/1
f 829/9/1 830/10/1 831/11/1 832/12/1
f 833/9/1 834/10/1 835/11/1 836/12/1
f 837/9/1 838/10/1 839/11/1 840/12/1
f 841/9/1 842/10/1 843/11/1 844/12/1
f 845/9/1 846/10/1 847/11/1 848/12/1
f 849/9/1 850/10/1 851/11/1 852/12/1
f 853/9/1 854/10/1 855/11/1 856/12/1
f 857/9/1 858/10/1 859/11/1 860/12/1
f 861/9/1 862/10/1 863/11/1 864/12/1
f 865/9/1 866/10/1 867/11/1 868/12/1
f 869/9/1 870/10/1 871/11/1 872/12/1
f 873/1/1 874/2/1 875/3/1 876/4/1
f 877/5/1 878/6/1 879/7/1 880/8/1

